<svg width="45" height="45" viewBox="0 0 45 45" fill="none" xmlns="http://www.w3.org/2000/svg">
<g clip-path="url(#clip0)">
<path d="M17.3438 33.75H3.28125C1.47188 33.75 0 32.2781 0 30.4688V22.9688C0 21.1594 1.47188 19.6875 3.28125 19.6875H17.3438C19.1531 19.6875 20.625 21.1594 20.625 22.9688V30.4688C20.625 32.2781 19.1531 33.75 17.3438 33.75ZM3.28125 22.5C3.0225 22.5 2.8125 22.71 2.8125 22.9688V30.4688C2.8125 30.7275 3.0225 30.9375 3.28125 30.9375H17.3438C17.6025 30.9375 17.8125 30.7275 17.8125 30.4688V22.9688C17.8125 22.71 17.6025 22.5 17.3438 22.5H3.28125Z" fill="#C2C2C2"/>
<path d="M43.5937 22.5H25.7812C25.005 22.5 24.375 21.87 24.375 21.0938C24.375 20.3175 25.005 19.6875 25.7812 19.6875H43.5937C44.37 19.6875 45 20.3175 45 21.0938C45 21.87 44.37 22.5 43.5937 22.5Z" fill="#C2C2C2"/>
<path d="M43.5937 28.125H25.7812C25.005 28.125 24.375 27.495 24.375 26.7188C24.375 25.9425 25.005 25.3125 25.7812 25.3125H43.5937C44.37 25.3125 45 25.9425 45 26.7188C45 27.495 44.37 28.125 43.5937 28.125Z" fill="#C2C2C2"/>
<path d="M43.5937 33.75H25.7812C25.005 33.75 24.375 33.12 24.375 32.3438C24.375 31.5675 25.005 30.9375 25.7812 30.9375H43.5937C44.37 30.9375 45 31.5675 45 32.3438C45 33.12 44.37 33.75 43.5937 33.75Z" fill="#C2C2C2"/>
<path d="M43.5938 39.375H1.40625C0.63 39.375 0 38.745 0 37.9688C0 37.1925 0.63 36.5625 1.40625 36.5625H43.5938C44.37 36.5625 45 37.1925 45 37.9688C45 38.745 44.37 39.375 43.5938 39.375Z" fill="#C2C2C2"/>
<path d="M43.5938 45H1.40625C0.63 45 0 44.37 0 43.5938C0 42.8175 0.63 42.1875 1.40625 42.1875H43.5938C44.37 42.1875 45 42.8175 45 43.5938C45 44.37 44.37 45 43.5938 45Z" fill="#C2C2C2"/>
<path d="M41.7188 16.875H3.28125C1.47188 16.875 0 15.4031 0 13.5938V3.28125C0 1.47188 1.47188 0 3.28125 0H41.7188C43.5281 0 45 1.47188 45 3.28125V13.5938C45 15.4031 43.5281 16.875 41.7188 16.875ZM3.28125 2.8125C3.0225 2.8125 2.8125 3.0225 2.8125 3.28125V13.5938C2.8125 13.8525 3.0225 14.0625 3.28125 14.0625H41.7188C41.9775 14.0625 42.1875 13.8525 42.1875 13.5938V3.28125C42.1875 3.0225 41.9775 2.8125 41.7188 2.8125H3.28125Z" fill="#C2C2C2"/>
</g>
<defs>
<clipPath id="clip0">
<rect width="45" height="45" fill="white"/>
</clipPath>
</defs>
</svg>
