<svg width="45" height="45" viewBox="0 0 45 45" fill="none" xmlns="http://www.w3.org/2000/svg">
<path d="M22.5 16.5C19.191 16.5 16.5 19.191 16.5 22.5C16.5 25.809 19.191 28.5001 22.5 28.5001C25.809 28.5001 28.5001 25.809 28.5001 22.5C28.5001 19.191 25.809 16.5 22.5 16.5ZM22.5 25.5C20.8455 25.5 19.5001 24.1545 19.5001 22.5C19.5001 20.8455 20.8456 19.5001 22.5 19.5001C24.1546 19.5001 25.5 20.8456 25.5 22.5C25.5 24.1546 24.1546 25.5 22.5 25.5Z" fill="#C2C2C2"/>
<path d="M40.4235 21C39.6991 12.2715 32.7285 5.30095 24 4.57646V0H21.0001V4.57646C12.2716 5.30095 5.30103 12.2715 4.57655 21H0V23.9999H4.57646C5.30095 32.7284 12.2715 39.699 21 40.4234V45H23.9999V40.4235C32.7284 39.6991 39.699 32.7285 40.4234 24H45V21.0001H40.4235V21ZM37.4235 24C36.7185 31.0755 31.0755 36.7185 23.9999 37.4236V33H21V37.4236C13.9245 36.7186 8.28149 31.0756 7.57644 24H12V21.0001H7.57644C8.28141 13.9246 13.9244 8.28158 21 7.57652V12.0001H23.9999V7.57652C31.0754 8.28299 36.7184 13.9245 37.4235 21.0001H32.9999V24H37.4235Z" fill="#C2C2C2"/>
</svg>
