<svg width="34" height="45" viewBox="0 0 34 45" fill="none" xmlns="http://www.w3.org/2000/svg">
<path d="M33.338 8.84953L24.9005 0.412031C24.6375 0.147656 24.2803 0 23.9062 0H1.40625C0.628594 0 0 0.63 0 1.40625V43.5938C0 44.37 0.628594 45 1.40625 45H32.3438C33.1214 45 33.75 44.37 33.75 43.5938V9.84375C33.75 9.47109 33.6023 9.1125 33.338 8.84953ZM25.3125 4.80094L28.9491 8.4375H25.3125V4.80094ZM30.9375 42.1875H2.8125V2.8125H22.5V9.84375C22.5 10.62 23.1286 11.25 23.9062 11.25H30.9375V42.1875Z" fill="#C2C2C2"/>
<path d="M8.4375 28.125H5.625V30.9375H8.4375V28.125Z" fill="#C2C2C2"/>
<path d="M8.4375 33.75H5.625V36.5625H8.4375V33.75Z" fill="#C2C2C2"/>
<path d="M14.0625 33.75H11.25V36.5625H14.0625V33.75Z" fill="#C2C2C2"/>
<path d="M19.6875 33.75H16.875V36.5625H19.6875V33.75Z" fill="#C2C2C2"/>
<path d="M25.3125 33.75H22.5V36.5625H25.3125V33.75Z" fill="#C2C2C2"/>
<path d="M11.25 30.9375H8.4375V33.75H11.25V30.9375Z" fill="#C2C2C2"/>
<path d="M14.0625 28.125H11.25V30.9375H14.0625V28.125Z" fill="#C2C2C2"/>
<path d="M16.875 30.9375H14.0625V33.75H16.875V30.9375Z" fill="#C2C2C2"/>
<path d="M19.6875 28.125H16.875V30.9375H19.6875V28.125Z" fill="#C2C2C2"/>
<path d="M22.5 30.9375H19.6875V33.75H22.5V30.9375Z" fill="#C2C2C2"/>
<path d="M11.25 36.5625H8.4375V39.375H11.25V36.5625Z" fill="#C2C2C2"/>
<path d="M16.875 36.5625H14.0625V39.375H16.875V36.5625Z" fill="#C2C2C2"/>
<path d="M22.5 36.5625H19.6875V39.375H22.5V36.5625Z" fill="#C2C2C2"/>
<path d="M28.125 36.5625H25.3125V39.375H28.125V36.5625Z" fill="#C2C2C2"/>
<path d="M25.3125 28.125H22.5V30.9375H25.3125V28.125Z" fill="#C2C2C2"/>
<path d="M8.4375 22.5H5.625V25.3125H8.4375V22.5Z" fill="#C2C2C2"/>
<path d="M14.0625 22.5H11.25V25.3125H14.0625V22.5Z" fill="#C2C2C2"/>
<path d="M19.6875 22.5H16.875V25.3125H19.6875V22.5Z" fill="#C2C2C2"/>
<path d="M25.3125 22.5H22.5V25.3125H25.3125V22.5Z" fill="#C2C2C2"/>
<path d="M28.125 30.9375H25.3125V33.75H28.125V30.9375Z" fill="#C2C2C2"/>
<path d="M11.25 25.3125H8.4375V28.125H11.25V25.3125Z" fill="#C2C2C2"/>
<path d="M16.875 25.3125H14.0625V28.125H16.875V25.3125Z" fill="#C2C2C2"/>
<path d="M22.5 25.3125H19.6875V28.125H22.5V25.3125Z" fill="#C2C2C2"/>
<path d="M28.125 25.3125H25.3125V28.125H28.125V25.3125Z" fill="#C2C2C2"/>
</svg>
