<svg width="29" height="45" viewBox="0 0 29 45" fill="none" xmlns="http://www.w3.org/2000/svg">
<path d="M28.3989 23.1916L15.7278 0.665255C15.2293 -0.221751 13.7722 -0.221751 13.2738 0.665255L0.602684 23.1916C0.398511 23.5535 0.366167 23.987 0.511189 24.3757L4.02107 33.7368H3.2369C2.45975 33.7368 1.82904 34.3675 1.82904 35.1448V40.7763C1.82904 41.5535 2.45975 42.1842 3.2369 42.1842H6.05269V45H8.86849V42.1842H20.1317V45H22.9475V42.1842H25.7633C26.5404 42.1842 27.1711 41.5535 27.1711 40.7763V35.1448C27.1711 34.3676 26.5404 33.7368 25.7633 33.7368H24.9791L28.489 24.3757C28.6354 23.9871 28.6017 23.5549 28.3989 23.1916ZM24.3554 39.3698H4.64475V36.554H6.0526H22.9474H24.3552V39.3698H24.3554ZM21.9718 33.7382H7.02838L3.3777 24.0012L13.0921 6.73051V20.0492C12.2544 20.5363 11.6843 21.4346 11.6843 22.475C11.6843 24.0293 12.9458 25.2908 14.5001 25.2908C16.0544 25.2908 17.3159 24.0293 17.3159 22.475C17.3159 21.436 16.7457 20.5377 15.9079 20.0492V6.73051L25.6225 24.0012L21.9718 33.7382Z" fill="#C2C2C2"/>
</svg>
