<svg width="45" height="45" viewBox="0 0 45 45" fill="none" xmlns="http://www.w3.org/2000/svg">
<path d="M45 7.03125H40.7812V9.84375H45V7.03125Z" fill="#C2C2C2"/>
<path d="M7.03125 7.03125V8.4375V9.84375V35.1562V36.5625V37.9688H37.9688V36.5625V35.1562V9.84375V8.4375V7.03125H7.03125ZM35.1562 35.1562H9.84375V9.84375H35.1562V35.1562Z" fill="#C2C2C2"/>
<path d="M4.21875 7.03125H0V9.84375H4.21875V7.03125Z" fill="#C2C2C2"/>
<path d="M45 35.1562H40.7812V37.9688H45V35.1562Z" fill="#C2C2C2"/>
<path d="M4.21875 35.1562H0V37.9688H4.21875V35.1562Z" fill="#C2C2C2"/>
<path d="M37.9688 0H35.1562V4.21875H37.9688V0Z" fill="#C2C2C2"/>
<path d="M37.9688 40.7812H35.1562V45H37.9688V40.7812Z" fill="#C2C2C2"/>
<path d="M9.84375 0H7.03125V4.21875H9.84375V0Z" fill="#C2C2C2"/>
<path d="M9.84375 40.7812H7.03125V45H9.84375V40.7812Z" fill="#C2C2C2"/>
<path d="M23.9062 21.0938V16.875H21.0938V21.0938H16.875V23.9062H21.0938V28.125H23.9062V23.9062H28.125V21.0938H23.9062Z" fill="#C2C2C2"/>
</svg>
