<svg width="32" height="45" viewBox="0 0 32 45" fill="none" xmlns="http://www.w3.org/2000/svg">
<path d="M30.4838 0H1.4516C0.650303 0 0 0.650303 0 1.4516V21.7742V27.5807C0 29.1818 1.3021 30.4839 2.9032 30.4839H11.6129V43.5484C11.6129 44.3497 12.2632 45 13.0645 45H18.871C19.6723 45 20.3226 44.3497 20.3226 43.5484V30.4839H29.0323C30.6334 30.4839 31.9355 29.1818 31.9355 27.5807V21.7742V1.4516C31.9354 0.650303 31.2851 0 30.4838 0ZM17.4193 42.0968H14.5161V30.4839H17.4193V42.0968ZM29.0322 27.5806H2.9032V23.2258H29.0322V27.5806ZM29.0322 20.3226H2.9032V2.9032H15.9677V15.9677H18.8709V2.9032H21.7741V10.1613H24.6773V2.9032H29.0321V20.3226H29.0322Z" fill="#C2C2C2"/>
<path d="M24.6776 13.0645H21.7744V15.9677H24.6776V13.0645Z" fill="#C2C2C2"/>
</svg>
