<svg width="19" height="29" viewBox="0 0 19 29" fill="none" xmlns="http://www.w3.org/2000/svg">
<path d="M10.7552 27.7446L10.7552 4.28587L16.3532 9.88346C16.8433 10.3738 17.6383 10.3738 18.1283 9.88346C18.6187 9.39308 18.6187 8.59805 18.1283 8.10839L10.3876 0.367788C9.89746 -0.122597 9.10236 -0.122597 8.61241 0.367788L0.871303 8.10839C0.626037 8.35351 0.503587 8.67476 0.503587 8.99593C0.503587 9.3171 0.626037 9.63834 0.871303 9.88346C1.3614 10.3738 2.15643 10.3738 2.64638 9.88346L8.24462 4.28587L8.24462 27.7446C8.24462 28.4378 8.80671 29 9.49995 29C10.1932 29 10.7552 28.4379 10.7552 27.7446Z" fill="#222222"/>
</svg>
