<svg width="35" height="28" viewBox="0 0 35 28" fill="none" xmlns="http://www.w3.org/2000/svg">
<path d="M11.92 13.36C13.2533 13.9467 14.2933 14.8267 15.04 16C15.7867 17.1733 16.16 18.56 16.16 20.16C16.16 22.4533 15.44 24.32 14 25.76C12.56 27.1467 10.72 27.84 8.48 27.84C6.24 27.84 4.37333 27.12 2.88 25.68C1.44 24.24 0.72 22.4 0.72 20.16C0.72 19.0933 0.853333 18.0267 1.12 16.96C1.38667 15.8933 1.97333 14.2933 2.88 12.16L7.52 0.639997H15.44L11.92 13.36ZM29.9138 13.36C31.2471 13.9467 32.2871 14.8267 33.0338 16C33.7804 17.1733 34.1538 18.56 34.1538 20.16C34.1538 22.4533 33.4338 24.32 31.9937 25.76C30.5538 27.1467 28.7138 27.84 26.4738 27.84C24.2338 27.84 22.3671 27.12 20.8737 25.68C19.4337 24.24 18.7137 22.4 18.7137 20.16C18.7137 19.0933 18.8471 18.0267 19.1137 16.96C19.3804 15.8933 19.9671 14.2933 20.8737 12.16L25.5137 0.639997H33.4338L29.9138 13.36Z" fill="#C2C2C2"/>
</svg>
