<svg width="22" height="14" viewBox="0 0 22 14" fill="none" xmlns="http://www.w3.org/2000/svg">
<path d="M0.952387 7.95231L18.7487 7.95231L14.5022 12.199C14.1302 12.5708 14.1302 13.174 14.5022 13.5457C14.8742 13.9177 15.4773 13.9177 15.8488 13.5457L21.721 7.67341C22.093 7.30161 22.093 6.69843 21.721 6.32675L15.8488 0.454187C15.6629 0.268124 15.4192 0.17523 15.1755 0.17523C14.9319 0.17523 14.6882 0.268124 14.5022 0.454187C14.1302 0.825982 14.1302 1.42911 14.5022 1.80079L18.7487 6.04774L0.952388 6.04773C0.426482 6.04773 1.59014e-05 6.47414 1.58554e-05 7.00005C1.58094e-05 7.52595 0.426426 7.95231 0.952387 7.95231Z" fill="white"/>
</svg>
