<svg width="142" height="41" viewBox="0 0 142 41" fill="none" xmlns="http://www.w3.org/2000/svg">
<path d="M39.2161 8.23565C40.6594 9.04631 41.8473 10.25 42.644 11.709C43.4729 13.201 43.8873 14.9377 43.8873 16.9191C43.8873 18.9004 43.4729 20.6371 42.644 22.1291C41.8475 23.5883 40.6595 24.792 39.2161 25.6025C37.7597 26.426 36.1435 26.8378 34.3673 26.8378C31.7387 26.8378 29.7376 26.0023 28.3641 24.3313V26.5514H23.0713V-0.0180664H28.6128V9.32778C30.01 7.77611 31.9282 7.00027 34.3673 7.00027C36.1435 7.00027 37.7597 7.41206 39.2161 8.23565ZM36.9072 20.8042C37.8189 19.8374 38.2748 18.5423 38.2748 16.9191C38.2748 15.2958 37.8189 14.0007 36.9072 13.0339C35.9954 12.0671 34.8291 11.5837 33.4082 11.5837C31.9874 11.5837 30.821 12.0671 29.9093 13.0339C28.9976 14.0007 28.5417 15.2958 28.5417 16.9191C28.5417 18.5423 28.9976 19.8374 29.9093 20.8042C30.8205 21.771 31.9868 22.2544 33.4082 22.2544C34.8297 22.2544 35.996 21.771 36.9072 20.8042Z" fill="black"/>
<path d="M51.2585 25.5669C49.7083 24.7652 48.4106 23.5438 47.5109 22.0398C46.6104 20.5359 46.1602 18.829 46.1602 16.9193C46.1602 15.0095 46.6104 13.3027 47.5109 11.7987C48.4107 10.2948 49.7084 9.07347 51.2585 8.27167C52.857 7.42481 54.6627 7.00109 56.6756 7.00049C58.6885 6.99989 60.4883 7.42362 62.075 8.27167C63.6173 9.07787 64.9083 10.2986 65.8048 11.7987C66.7047 13.3027 67.1547 15.0095 67.1547 16.9193C67.1547 18.829 66.7047 20.5359 65.8048 22.0398C64.9086 23.5402 63.6176 24.761 62.075 25.5669C60.4883 26.4143 58.6885 26.838 56.6756 26.838C54.6627 26.838 52.857 26.4143 51.2585 25.5669ZM60.1746 20.8044C61.0863 19.8376 61.5422 18.5426 61.5422 16.9193C61.5422 15.296 61.0863 14.0009 60.1746 13.0341C59.2628 12.0673 58.0965 11.5839 56.6756 11.5839C55.2547 11.5839 54.0825 12.0673 53.1589 13.0341C52.2353 14.0009 51.7736 15.296 51.7736 16.9193C51.7736 18.5426 52.2353 19.8376 53.1589 20.8044C54.0825 21.7712 55.2547 22.2546 56.6756 22.2546C58.0965 22.2546 59.2628 21.7712 60.1746 20.8044Z" fill="black"/>
<path d="M89.2843 7.28662L81.2207 26.5513H75.5025L67.4736 7.28662H73.1927L78.4855 20.3923L83.9559 7.28662H89.2843Z" fill="black"/>
<path d="M91.5586 -0.0180664H97.1001V26.5514H91.5586V-0.0180664Z" fill="black"/>
<path d="M105.926 25.5669C104.375 24.7652 103.078 23.5438 102.178 22.0398C101.277 20.5359 100.828 18.829 100.828 16.9193C100.829 15.0095 101.279 13.3027 102.178 11.7987C103.078 10.2948 104.375 9.07347 105.926 8.27167C107.524 7.42481 109.33 7.00109 111.343 7.00049C113.356 6.99989 115.155 7.42362 116.742 8.27167C118.284 9.07787 119.575 10.2986 120.472 11.7987C121.372 13.3027 121.822 15.0095 121.822 16.9193C121.822 18.829 121.372 20.5359 120.472 22.0398C119.576 23.5402 118.285 24.761 116.742 25.5669C115.155 26.4143 113.356 26.838 111.343 26.838C109.33 26.838 107.524 26.4143 105.926 25.5669ZM114.842 20.8044C115.753 19.8376 116.209 18.5426 116.209 16.9193C116.21 15.296 115.754 14.0009 114.842 13.0341C113.93 12.0673 112.764 11.5839 111.343 11.5839C109.922 11.5839 108.75 12.0673 107.826 13.0341C106.902 14.0009 106.441 15.296 106.441 16.9193C106.441 18.5426 106.902 19.8376 107.826 20.8044C108.75 21.7712 109.922 22.2546 111.343 22.2546C112.764 22.2546 113.93 21.7712 114.842 20.8044Z" fill="black"/>
<path d="M24.3947 40.7204C23.8619 40.5641 23.4445 40.3647 23.1426 40.1224L23.6754 39.1019C24.021 39.3425 24.4035 39.524 24.8077 39.639C25.244 39.7721 25.6973 39.84 26.1531 39.8404C27.272 39.8404 27.8315 39.5182 27.8315 38.8736C27.8355 38.7767 27.8171 38.6802 27.7779 38.5916C27.7386 38.5031 27.6794 38.4249 27.6051 38.3634C27.439 38.2305 27.2458 38.1364 27.0394 38.0876C26.8126 38.028 26.4908 37.9632 26.074 37.8934C25.6028 37.826 25.1373 37.7227 24.6816 37.5845C24.3276 37.4717 24.0087 37.2681 23.7562 36.9937C23.4987 36.7162 23.3699 36.3268 23.3699 35.8255C23.3699 35.1809 23.6363 34.6641 24.1692 34.275C24.702 33.8859 25.4169 33.691 26.3138 33.6904C26.7899 33.6926 27.264 33.7527 27.7258 33.8695C28.1336 33.9612 28.5237 34.1199 28.8803 34.3394L28.3377 35.36C27.7605 34.984 27.0796 34.796 26.2952 34.796C25.7535 34.796 25.3405 34.8855 25.0563 35.0646C24.7722 35.2436 24.6301 35.4823 24.6301 35.7807C24.6254 35.8849 24.6446 35.9887 24.6862 36.0842C24.7277 36.1797 24.7906 36.2642 24.8698 36.3313C25.0432 36.4726 25.2455 36.5735 25.4622 36.6267C25.699 36.6893 26.0299 36.761 26.455 36.8415C26.9224 36.9139 27.3846 37.0171 27.8386 37.1504C28.1829 37.2582 28.493 37.4551 28.7382 37.7215C28.9869 37.9901 29.1112 38.366 29.1112 38.8495C29.1112 39.494 28.8383 40.0066 28.2924 40.3874C27.7465 40.7682 27.003 40.9585 26.0616 40.9585C25.4976 40.9596 24.9363 40.8794 24.3947 40.7204Z" fill="black"/>
<path d="M34.6783 40.4624C34.4753 40.6326 34.2394 40.7585 33.9856 40.8321C33.7093 40.9174 33.422 40.9605 33.1331 40.9601C32.4226 40.9601 31.872 40.7676 31.4813 40.3827C31.0905 39.9978 30.8952 39.4472 30.8952 38.7311V34.8226H29.6963V33.7573H30.8952V32.1997H32.174V33.7573H34.1987V34.8226H32.174V38.672C32.174 39.0569 32.2696 39.3523 32.4608 39.5582C32.652 39.7641 32.9253 39.8671 33.2805 39.8671C33.642 39.8767 33.9953 39.7579 34.2787 39.5314L34.6783 40.4624Z" fill="black"/>
<path d="M42.8043 33.7578V40.8746H41.5921V39.8004C41.3319 40.1695 40.9805 40.4636 40.5726 40.6535C40.1415 40.8571 39.6705 40.9605 39.1944 40.9561C38.253 40.9561 37.5115 40.6941 36.9698 40.1701C36.4281 39.6461 36.1572 38.8742 36.1572 37.8542V33.7578H37.436V37.7056C37.436 38.3949 37.6003 38.9165 37.9289 39.2704C38.2575 39.6243 38.7282 39.801 39.3409 39.8004C40.0158 39.8004 40.5487 39.5945 40.9394 39.1827C41.3302 38.7709 41.5255 38.189 41.5255 37.4371V33.7578H42.8043Z" fill="black"/>
<path d="M51.901 30.9111V40.8747H50.6755V39.7467C50.3976 40.1332 50.0261 40.4414 49.5965 40.6419C49.1456 40.8513 48.6542 40.9568 48.1578 40.9508C47.5162 40.9614 46.8828 40.8041 46.3196 40.4942C45.7841 40.1961 45.3433 39.7513 45.0479 39.2114C44.7463 38.6255 44.5889 37.975 44.5889 37.3149C44.5889 36.6548 44.7463 36.0044 45.0479 35.4184C45.345 34.8817 45.7856 34.4397 46.3196 34.1428C46.8829 33.833 47.5162 33.6757 48.1578 33.6862C48.6383 33.6832 49.1139 33.7833 49.553 33.9799C49.9742 34.1686 50.3409 34.4621 50.6186 34.833V30.9111H51.901ZM49.4766 39.5122C49.8384 39.3042 50.1341 38.9969 50.3291 38.6259C50.5306 38.2194 50.6354 37.7712 50.6354 37.3167C50.6354 36.8623 50.5306 36.414 50.3291 36.0075C50.135 35.6375 49.839 35.3319 49.4766 35.1275C49.1031 34.9249 48.6855 34.8188 48.2613 34.8188C47.8371 34.8188 47.4195 34.9249 47.046 35.1275C46.6855 35.3344 46.3901 35.6393 46.1935 36.0075C45.9877 36.4127 45.8804 36.8615 45.8804 37.3167C45.8804 37.772 45.9877 38.2207 46.1935 38.6259C46.391 38.995 46.6861 39.3018 47.046 39.5122C47.4183 39.7192 47.8366 39.8278 48.2617 39.8278C48.6869 39.8278 49.1052 39.7192 49.4775 39.5122H49.4766Z" fill="black"/>
<path d="M54.3487 32.1463C54.2691 32.0705 54.2061 31.9788 54.1638 31.877C54.1214 31.7753 54.1006 31.6658 54.1027 31.5554C54.101 31.4441 54.1219 31.3336 54.1642 31.2308C54.2065 31.1279 54.2693 31.0349 54.3487 30.9575C54.4299 30.8754 54.527 30.8111 54.634 30.7684C54.7409 30.7258 54.8554 30.7057 54.9703 30.7095C55.0842 30.7056 55.1977 30.7244 55.3044 30.7648C55.4111 30.8052 55.5088 30.8664 55.592 30.9449C55.6716 31.0191 55.7348 31.1095 55.7772 31.2101C55.8196 31.3107 55.8403 31.4193 55.838 31.5286C55.8406 31.642 55.8201 31.7548 55.7778 31.86C55.7354 31.9651 55.6722 32.0604 55.592 32.14C55.5108 32.2222 55.4137 32.2867 55.3068 32.3295C55.1998 32.3723 55.0853 32.3925 54.9703 32.3889C54.8558 32.3926 54.7418 32.373 54.635 32.3314C54.5282 32.2897 54.4308 32.2267 54.3487 32.1463ZM54.3283 33.7576H55.6071V40.8744H54.3283V33.7576Z" fill="black"/>
<path d="M59.1743 40.4848C58.6267 40.183 58.1727 39.7344 57.8626 39.1885C57.5523 38.6138 57.3896 37.9698 57.3896 37.3153C57.3896 36.6609 57.5523 36.0169 57.8626 35.4422C58.1718 34.8974 58.6262 34.4509 59.1743 34.1531C59.7578 33.8488 60.4053 33.6899 61.0623 33.6899C61.7193 33.6899 62.3667 33.8488 62.9503 34.1531C63.4956 34.4524 63.9476 34.8987 64.2557 35.4422C64.5661 36.0169 64.7287 36.6609 64.7287 37.3153C64.7287 37.9698 64.5661 38.6138 64.2557 39.1885C63.9467 39.7331 63.4951 40.1815 62.9503 40.4848C62.368 40.7934 61.7201 40.9547 61.0623 40.9547C60.4044 40.9547 59.7565 40.7934 59.1743 40.4848ZM62.2825 39.5117C62.6415 39.3023 62.9348 38.9951 63.1288 38.6255C63.3302 38.2189 63.4351 37.7707 63.4351 37.3162C63.4351 36.8618 63.3302 36.4136 63.1288 36.007C62.9358 35.6383 62.6421 35.3329 62.2825 35.127C61.9077 34.9241 61.489 34.8179 61.0636 34.8179C60.6382 34.8179 60.2195 34.9241 59.8447 35.127C59.4843 35.3339 59.1888 35.6388 58.9922 36.007C58.7865 36.4123 58.6792 36.861 58.6792 37.3162C58.6792 37.7715 58.7865 38.2202 58.9922 38.6255C59.1898 38.9946 59.4848 39.3013 59.8447 39.5117C60.2182 39.7187 60.6374 39.8272 61.0636 39.8272C61.4898 39.8272 61.909 39.7187 62.2825 39.5117Z" fill="black"/>
<path d="M126.959 3.16434L125.66 4.4758C125.455 4.68466 125.294 4.9322 125.184 5.20426C125.074 5.47631 125.019 5.76752 125.021 6.06119C125.016 6.35278 125.07 6.64237 125.179 6.91212C125.289 7.18186 125.453 7.42604 125.66 7.62958L134.063 16.0999L125.66 24.5658C125.453 24.7693 125.289 25.0135 125.179 25.2833C125.07 25.553 125.016 25.8426 125.021 26.1342C125.019 26.4279 125.074 26.7191 125.184 26.9911C125.294 27.2632 125.455 27.5107 125.66 27.7196L126.957 29.0096C127.16 29.2225 127.405 29.3912 127.676 29.5052C127.946 29.6191 128.237 29.6759 128.53 29.672C128.822 29.679 129.111 29.6236 129.379 29.5094C129.647 29.3952 129.888 29.2248 130.086 29.0096L141.343 17.6647C141.557 17.4652 141.726 17.2221 141.839 16.9517C141.952 16.6814 142.007 16.3898 142 16.0963C142.004 15.8008 141.948 15.5077 141.835 15.235C141.722 14.9624 141.554 14.7159 141.343 14.511L130.088 3.16434C129.886 2.95532 129.644 2.79022 129.376 2.67921C129.109 2.5682 128.822 2.51364 128.532 2.5189C128.241 2.51674 127.952 2.57264 127.682 2.68341C127.411 2.79417 127.166 2.95761 126.959 3.16434Z" fill="#FF8A62"/>
<path d="M15.1138 29.0276L16.4104 27.7207C16.8233 27.3001 17.0536 26.7314 17.0507 26.1397C17.056 25.8482 17.002 25.5586 16.8921 25.2888C16.7821 25.0191 16.6185 24.7749 16.4113 24.5714L8.00851 16.0965L16.4113 7.62617C16.6185 7.42263 16.7821 7.17846 16.8921 6.90871C17.002 6.63897 17.056 6.34937 17.0507 6.05779C17.0541 5.46591 16.8241 4.89691 16.4113 4.47598L15.1147 3.186C14.9113 2.97301 14.6667 2.80434 14.396 2.6904C14.1253 2.57646 13.8344 2.51968 13.5411 2.52355C13.2509 2.51649 12.9626 2.57148 12.695 2.68489C12.4274 2.7983 12.1867 2.96756 11.9888 3.18152L0.730011 14.5272C0.516496 14.7268 0.347492 14.9698 0.234198 15.2402C0.120904 15.5106 0.0659064 15.8022 0.0728501 16.0956C0.0691279 16.3911 0.12552 16.6843 0.238546 16.9569C0.351573 17.2296 0.518835 17.476 0.730011 17.681L11.9888 29.0276C12.1906 29.2367 12.4328 29.4018 12.7004 29.5128C12.968 29.6238 13.2553 29.6783 13.5446 29.6731C13.8354 29.6747 14.1237 29.6185 14.3929 29.5077C14.6622 29.397 14.9071 29.2338 15.1138 29.0276Z" fill="#FF8A62"/>
</svg>
