<svg width="29" height="19" viewBox="0 0 29 19" fill="none" xmlns="http://www.w3.org/2000/svg">
<path d="M1.2554 10.7554L24.7141 10.7554L19.1165 16.3534C18.6262 16.8435 18.6262 17.6385 19.1165 18.1285C19.6069 18.6189 20.4019 18.6189 20.8916 18.1285L28.6322 10.3878C29.1226 9.89771 29.1226 9.10261 28.6322 8.61266L20.8916 0.871547C20.6465 0.626281 20.3252 0.503831 20.0041 0.503831C19.6829 0.503831 19.3617 0.626281 19.1165 0.871547C18.6262 1.36164 18.6262 2.15667 19.1165 2.64662L24.7141 8.24487L1.2554 8.24487C0.562161 8.24487 8.47073e-07 8.80695 7.86468e-07 9.50019C7.25863e-07 10.1934 0.562089 10.7554 1.2554 10.7554Z" fill="white"/>
</svg>
