<svg width="29" height="19" viewBox="0 0 29 19" fill="none" xmlns="http://www.w3.org/2000/svg">
<path d="M27.7446 8.24455H4.28587L9.88346 2.6466C10.3738 2.1565 10.3738 1.36147 9.88346 0.871451C9.39308 0.381066 8.59805 0.381066 8.10839 0.871451L0.367789 8.6122C-0.122596 9.10229 -0.122596 9.89739 0.367789 10.3873L8.10839 18.1285C8.35351 18.3737 8.67476 18.4962 8.99593 18.4962C9.3171 18.4962 9.63834 18.3737 9.88346 18.1285C10.3738 17.6384 10.3738 16.8433 9.88346 16.3534L4.28587 10.7551H27.7446C28.4378 10.7551 29 10.193 29 9.49981C29 8.80657 28.4379 8.24455 27.7446 8.24455Z" fill="#fff"/>
</svg>
