<svg width="23" height="16" viewBox="0 0 23 16" fill="none" xmlns="http://www.w3.org/2000/svg">
<path opacity="0.3" d="M20.625 1.64062H14.9219V3.02455H20.625V1.64062ZM17.8125 6.39509C17.1429 6.39509 16.5997 6.59226 16.183 6.98661C15.7664 7.37351 15.5357 7.90179 15.4911 8.57143H20.0446C19.9107 7.12054 19.1667 6.39509 17.8125 6.39509ZM17.9911 12.9241C18.4598 12.9241 18.9137 12.8051 19.3527 12.567C19.7917 12.3289 20.0744 12.0052 20.2009 11.596H22.6674C21.9234 13.8802 20.3348 15.0223 17.9018 15.0223C16.3095 15.0223 15.0409 14.5312 14.096 13.5491C13.1585 12.567 12.6897 11.276 12.6897 9.67634C12.6897 8.12872 13.1734 6.84524 14.1406 5.82589C15.1153 4.79911 16.369 4.28571 17.9018 4.28571C18.9286 4.28571 19.8214 4.53869 20.5804 5.04464C21.3467 5.55059 21.9159 6.21652 22.2879 7.04241C22.6674 7.8683 22.8571 8.79092 22.8571 9.81027C22.8571 9.93676 22.8497 10.1116 22.8348 10.3348H15.4911C15.4911 11.1607 15.7031 11.8006 16.1272 12.2545C16.5588 12.7009 17.1801 12.9241 17.9911 12.9241ZM3.09152 12.3661H6.39509C7.92039 12.3661 8.68304 11.7448 8.68304 10.5022C8.68304 9.16295 7.94271 8.4933 6.46205 8.4933H3.09152V12.3661ZM3.09152 6.37277H6.22768C6.80804 6.37277 7.26563 6.23884 7.60045 5.97098C7.94271 5.69568 8.11384 5.27158 8.11384 4.69866C8.11384 3.62723 7.40699 3.09152 5.9933 3.09152H3.09152V6.37277ZM0 0.691963H6.62946C7.27679 0.691963 7.85342 0.744047 8.35938 0.848213C8.86533 0.95238 9.33408 1.13095 9.76563 1.38393C10.2046 1.62946 10.5394 1.98661 10.7701 2.45536C11.0082 2.92411 11.1272 3.49702 11.1272 4.17411C11.1272 5.52083 10.4874 6.49926 9.20759 7.10937C10.0558 7.34747 10.6957 7.7753 11.1272 8.39286C11.5588 9.01042 11.7746 9.76935 11.7746 10.6696C11.7746 11.2277 11.6815 11.7374 11.4955 12.1987C11.317 12.6525 11.0714 13.0357 10.7589 13.3482C10.4539 13.6607 10.0893 13.9249 9.66518 14.1406C9.24107 14.3564 8.79092 14.5126 8.31473 14.6094C7.83854 14.7061 7.34003 14.7545 6.8192 14.7545H0V0.691963Z" fill="white"/>
</svg>
