<svg width="18" height="15" viewBox="0 0 18 15" fill="none" xmlns="http://www.w3.org/2000/svg">
<path opacity="0.3" d="M17.5 1.36719L14.8438 13.7891C14.6354 14.6745 14.1536 14.9089 13.3984 14.4922L9.375 11.5234L7.42188 13.3984C7.16146 13.6589 6.88802 13.7891 6.60156 13.7891L6.91406 9.6875L14.375 2.96875C14.5573 2.78646 14.5573 2.68229 14.375 2.65625C14.2188 2.60417 14.0495 2.64323 13.8672 2.77344L4.64844 8.59375L0.664062 7.34375C0.221354 7.21354 0.0130208 7.01823 0.0390625 6.75781C0.0651042 6.4974 0.338542 6.27604 0.859375 6.09375L16.3672 0.078125C16.7578 -0.0520833 17.0703 0 17.3047 0.234375C17.5391 0.442708 17.6042 0.820312 17.5 1.36719Z" fill="white"/>
</svg>
