<svg width="20" height="21" viewBox="0 0 20 21" fill="none" xmlns="http://www.w3.org/2000/svg">
<path opacity="0.3" d="M17.3438 2.45312C18.2031 3.20833 18.8151 4.40625 19.1797 6.04688C19.5443 7.66146 19.5833 9.66667 19.2969 12.0625C19.2188 12.6615 19.0885 13.2083 18.9062 13.7031C18.75 14.1979 18.5677 14.6276 18.3594 14.9922C18.151 15.3307 17.9036 15.6432 17.6172 15.9297C17.3568 16.2161 17.0964 16.4505 16.8359 16.6328C16.6016 16.7891 16.3411 16.9323 16.0547 17.0625C15.7682 17.1927 15.5339 17.2969 15.3516 17.375C15.1693 17.4271 14.9609 17.4792 14.7266 17.5312C14.5182 17.5833 14.401 17.6094 14.375 17.6094C14.1927 17.6875 13.8802 17.7656 13.4375 17.8438C12.9948 17.9219 12.2917 18 11.3281 18.0781C10.3646 18.1823 9.40104 18.1823 8.4375 18.0781C7.89062 18.6771 7.5 19.1068 7.26562 19.3672C7.1875 19.4453 7.08333 19.5495 6.95312 19.6797C6.82292 19.8359 6.73177 19.9401 6.67969 19.9922C6.6276 20.0443 6.53646 20.1224 6.40625 20.2266C6.30208 20.3568 6.22396 20.4219 6.17188 20.4219C6.11979 20.4219 6.02865 20.4479 5.89844 20.5C5.76823 20.5521 5.67708 20.5391 5.625 20.4609C5.52083 20.4349 5.42969 20.3828 5.35156 20.3047C5.27344 20.2266 5.22135 20.1354 5.19531 20.0312C5.16927 19.9531 5.14323 19.862 5.11719 19.7578C5.11719 19.6797 5.11719 19.6146 5.11719 19.5625L5.07812 19.4844L5.11719 17.4531H5.07812C4.53125 17.2969 4.02344 17.0885 3.55469 16.8281C3.08594 16.5417 2.69531 16.2292 2.38281 15.8906C2.09635 15.5521 1.82292 15.1875 1.5625 14.7969C1.32812 14.3802 1.14583 13.9635 1.01562 13.5469C0.911458 13.1302 0.807292 12.7005 0.703125 12.2578C0.625 11.8151 0.572917 11.3854 0.546875 10.9688C0.546875 10.5521 0.533854 10.1484 0.507812 9.75781C0.507812 9.36719 0.520833 9.01562 0.546875 8.70312C0.598958 5.86458 1.25 3.82031 2.5 2.57031C3.28125 1.86719 4.32292 1.34635 5.625 1.00781C6.92708 0.669271 8.04688 0.5 8.98438 0.5H10.3516C11.7057 0.526042 12.9297 0.682292 14.0234 0.96875C15.1432 1.22917 15.9115 1.48958 16.3281 1.75C16.7448 1.98438 17.0833 2.21875 17.3438 2.45312ZM17.8906 11.7109C18.151 9.67969 18.125 7.96094 17.8125 6.55469C17.526 5.1224 17.0182 4.09375 16.2891 3.46875C16.1068 3.28646 15.8203 3.09115 15.4297 2.88281C15.0391 2.67448 14.362 2.46615 13.3984 2.25781C12.4609 2.04948 11.4193 1.93229 10.2734 1.90625C10.1693 1.90625 10 1.90625 9.76562 1.90625C9.55729 1.90625 9.15365 1.93229 8.55469 1.98438C7.98177 2.01042 7.42188 2.07552 6.875 2.17969C6.35417 2.25781 5.78125 2.42708 5.15625 2.6875C4.53125 2.92188 4.02344 3.23438 3.63281 3.625C2.5651 4.66667 2.00521 6.3724 1.95312 8.74219C1.97917 9.21094 1.97917 9.71875 1.95312 10.2656C1.92708 10.7865 1.97917 11.3594 2.10938 11.9844C2.23958 12.5833 2.40885 13.1562 2.61719 13.7031C2.85156 14.224 3.22917 14.7188 3.75 15.1875C4.27083 15.6302 4.90885 15.9557 5.66406 16.1641C5.63802 18.2214 5.625 19.3411 5.625 19.5234C5.625 19.7057 5.67708 19.8099 5.78125 19.8359C5.88542 19.888 5.98958 19.849 6.09375 19.7188L8.75 16.6328C9.55729 16.6849 10.3776 16.6849 11.2109 16.6328C12.0443 16.5547 12.6562 16.4766 13.0469 16.3984C13.4375 16.3203 13.7109 16.2552 13.8672 16.2031C13.8932 16.2031 14.0104 16.1771 14.2188 16.125C14.4531 16.0729 14.6484 16.0208 14.8047 15.9688C14.987 15.8906 15.2214 15.7865 15.5078 15.6562C15.7943 15.526 16.0417 15.3568 16.25 15.1484C16.4844 14.9141 16.7188 14.6536 16.9531 14.3672C17.1875 14.0547 17.3828 13.6771 17.5391 13.2344C17.6953 12.7656 17.8125 12.2578 17.8906 11.7109ZM12.4609 8.54688C12.4609 8.72917 12.3698 8.82031 12.1875 8.82031C12.0312 8.82031 11.9531 8.74219 11.9531 8.58594C11.901 7.7526 11.4714 7.3099 10.6641 7.25781C10.5599 7.25781 10.4818 7.21875 10.4297 7.14062C10.4036 7.03646 10.4167 6.94531 10.4688 6.86719C10.5208 6.78906 10.599 6.75 10.7031 6.75C11.8229 6.80208 12.4089 7.40104 12.4609 8.54688ZM13.2422 9.01562C13.2682 8.15625 13.0208 7.4401 12.5 6.86719C11.9792 6.29427 11.237 5.96875 10.2734 5.89062C10.1693 5.89062 10.1042 5.85156 10.0781 5.77344C10.0521 5.66927 10.0521 5.57812 10.0781 5.5C10.1302 5.42188 10.2083 5.38281 10.3125 5.38281C11.4062 5.46094 12.2526 5.83854 12.8516 6.51562C13.4766 7.19271 13.776 8.02604 13.75 9.01562C13.75 9.11979 13.7109 9.19792 13.6328 9.25C13.5547 9.27604 13.4635 9.27604 13.3594 9.25C13.2812 9.19792 13.2422 9.11979 13.2422 9.01562ZM15.0781 9.52344C15.0781 9.6276 15.0391 9.70573 14.9609 9.75781C14.8828 9.78385 14.7917 9.78385 14.6875 9.75781C14.6094 9.70573 14.5703 9.6276 14.5703 9.52344C14.5703 7.98698 14.1146 6.78906 13.2031 5.92969C12.3177 5.04427 11.1979 4.60156 9.84375 4.60156C9.6875 4.60156 9.60938 4.52344 9.60938 4.36719C9.60938 4.1849 9.6875 4.09375 9.84375 4.09375C11.3542 4.09375 12.6042 4.58854 13.5938 5.57812C14.5833 6.54167 15.0781 7.85677 15.0781 9.52344ZM14.6484 13.3516C14.388 13.7943 14.0755 14.1589 13.7109 14.4453C13.3464 14.7057 12.9818 14.7708 12.6172 14.6406C12.1745 14.5104 11.5365 14.224 10.7031 13.7812C9.89583 13.3385 9.20573 12.8958 8.63281 12.4531C8.00781 11.9583 7.44792 11.3984 6.95312 10.7734C6.53646 10.2266 6.14583 9.6276 5.78125 8.97656C5.52083 8.53385 5.29948 8.13021 5.11719 7.76562C4.96094 7.40104 4.85677 7.14062 4.80469 6.98438L4.76562 6.78906C4.63542 6.42448 4.70052 6.0599 4.96094 5.69531C5.2474 5.33073 5.61198 5.01823 6.05469 4.75781C6.41927 4.57552 6.73177 4.6276 6.99219 4.91406C7.30469 5.30469 7.53906 5.59115 7.69531 5.77344C7.8776 6.03385 8.07292 6.34635 8.28125 6.71094C8.51562 7.15365 8.46354 7.50521 8.125 7.76562L7.65625 8.11719C7.57812 8.16927 7.52604 8.2474 7.5 8.35156C7.47396 8.42969 7.46094 8.50781 7.46094 8.58594V8.66406C7.48698 8.74219 7.51302 8.84635 7.53906 8.97656C7.59115 9.08073 7.69531 9.30208 7.85156 9.64062C8.03385 9.95312 8.22917 10.2526 8.4375 10.5391C8.67188 10.7995 8.98438 11.0729 9.375 11.3594C9.79167 11.6458 10.2474 11.8542 10.7422 11.9844C10.9766 11.9844 11.1589 11.9062 11.2891 11.75L11.6797 11.2812C11.9401 10.9427 12.2786 10.8906 12.6953 11.125C13.4245 11.5417 14.0234 11.9714 14.4922 12.4141C14.7786 12.6745 14.8307 12.987 14.6484 13.3516Z" fill="white"/>
</svg>
